<svg width="360" height="135" fill="none" xmlns="http://www.w3.org/2000/svg">
  <mask id="a" maskUnits="userSpaceOnUse" x="0" y="0" width="360" height="135">
    <path d="M360 0H0v135h360V0z" fill="#fff"/>
  </mask>
  <g mask="url(#a)">
    <path d="M385.3-18.52H-43.12v165.14H385.3V-18.52z" fill="#DAF3FF"/>
    <path d="M325.32 16.18l11.16 5.76c4.7 2.42 7.64 7.14 7.57 12.12L342.57 86a5.6 5.6 0 01-4.42 5.3l-7.57 1.64-5.26-76.77z" fill="#A7E3FF"/>
    <path d="M281.84 18.07c8.91-1 25.69-2.61 40.65-2.44 4.44.05 8.11 3.72 8 7.96l-1.75 67.86-53.13-1.21-.13-65.26a6.96 6.96 0 016.36-6.9z" fill="#41C3FF"/>
    <path d="M275.5 36.48l.1 55.11 54.98 1.36s-1.01-33.46-.39-57.71c-24.12-.51-43.39.79-54.69 1.24z" fill="#DAF3FF"/>
    <path d="M283.96 88.54l.22-43.2a3.2 3.2 0 013.03-3.16 339.6 339.6 0 0128.47-1.14 3.7 3.7 0 013.7 3.55l.33 45.07a3.23 3.23 0 01-3.42 3.2l-28.7-.74a3.7 3.7 0 01-3.63-3.58z" fill="#fff"/>
    <path d="M299.92 92.44l1.45.04-.03-51.17-1.44.07.02 51.06z" fill="#DAF3FF"/>
    <path d="M285.86 13.9c5.42-.37 19.59-1.27 30.87-1.33a2.77 2.77 0 012.8 2.74l-.2 7.37a2.41 2.41 0 01-2.48 2.33c-10.83.03-24.51.87-30.51 1.27-1.6.11-3.02-1.19-2.97-2.73l.18-7.33a2.4 2.4 0 012.3-2.32zM275.5 33.29c8.1-.63 32.79-2.27 54.76-.82l.07-2.62c-21.84-1.44-46.3.13-54.84.78v2.66z" fill="#A7E3FF"/>
    <path d="M292.77 23.7c2.12-1.29 2.83-4 1.58-6.06a4.43 4.43 0 00-6.1-1.39 4.43 4.43 0 00-1.6 6.07 4.43 4.43 0 006.12 1.38z" fill="#41C3FF"/>
    <path d="M288.72 19.44c.18-.17.35-.31.6-.35.58-.1 1.02-.03 1.06-1.51.07-.78 1.21-.73 1.2.16l-.02.79c0 .16.13.3.3.29h.5c.6-.01 1.04.56.87 1.14l-.44 1.46a.96.96 0 01-.9.67l-2.13.02c-.31 0-.62-.12-.83-.34l-.25-.25.04-2.08z" fill="#DAF3FF"/>
    <path d="M288.65 22.12h-.26a.6.6 0 01-.62-.61l.04-2.03c.01-.35.3-.63.65-.63h.26a.3.3 0 01.3.3l-.05 2.66c0 .17-.15.31-.32.31zM296.94 19.33v.03c-.03.93.82 1.72 1.8 1.66 3.37-.2 10.58-.59 14.79-.57.84 0 1.5-.6 1.52-1.41.02-.9-.77-1.68-1.7-1.67-3.36.02-10.73.1-15.06.55-.76.07-1.33.66-1.35 1.4z" fill="#DAF3FF"/>
    <path d="M37.32 77.76c.11-.74.84-1.44 1.56-1.23.5.14.8.63 1.27.85 1.36.6 2.84-1.42 4.2-.85.45.18.75.6 1.17.82.84.46 1.87.04 2.76-.34.89-.37 2-.67 2.73-.04.4.34.58.9.98 1.23.52.43 1.29.4 1.94.22.65-.18 1.27-.5 1.95-.57.67-.07 1.45.2 1.7.82.11.3.14.68.44.8.11.05.25.03.37.01l1.7-.2c.22-.03.47-.05.67.07.24.14.32.44.38.71.1.46.21.94.06 1.38-.28.79-1.22 1.08-2.04 1.2-1.89.25-3.8.1-5.7-.08-3.26-.3-6.51-.7-9.73-1.3a61.5 61.5 0 01-4.83-1.05c-1.17-.3-1.77-1.15-1.58-2.45zM29.21 110.43c-.07.74.4 1.58 1.07 1.54.45-.03.83-.44 1.28-.54 1.3-.29 2.13 2 3.43 1.76.42-.07.77-.41 1.18-.54.83-.25 1.63.39 2.3.95.68.56 1.58 1.1 2.34.65.43-.24.7-.74 1.12-.97.55-.3 1.2-.1 1.72.21.52.33.98.77 1.55.99.56.22 1.29.14 1.64-.42.17-.25.28-.63.56-.68.11-.02.22.03.33.07l1.4.58c.2.08.4.16.6.09.24-.1.38-.37.5-.62.18-.42.38-.86.35-1.33-.07-.82-.8-1.32-1.5-1.61a19.69 19.69 0 00-4.91-1.2 88.29 88.29 0 00-8.66-.92 48.76 48.76 0 00-4.4-.05c-1.07.04-1.78.73-1.9 2.04z" fill="#41C3FF"/>
    <path d="M37.6 79.1s-14.47 13.05-7.52 30.31l20.26 2.43s11.54-4.98 11.21-30.47c-2.46-.8-12.25-2.85-23.94-2.28z" fill="#A7E3FF"/>
    <path d="M60.5 82.03S49.82 92.81 50.18 110.9c5.86-4.7 11.58-15.29 10.32-28.87zM47.53 99.6c.28-3.5-3.51-4.16-5.64-1.75-1.38 1.57-4.67 3.47-6.93 1.41 3.53 4.4 12.03 7 12.57.33z" fill="#41C3FF"/>
    <path d="M35.62 93.75c2.23-1.75 5.1 1.4 4.79 3.46-.32 2.06.03 5.81 3.04 6.38-4.12.8-13.1-5.7-7.83-9.84zM38.06 83.46s-1.86 1.95-1.92 4.1l14.42 1.74s.55-3.12 2.29-4.24c-5.11-.52-14.79-1.6-14.79-1.6z" fill="#DAF3FF"/>
    <path d="M10.9 77.76c.12-.74.84-1.44 1.56-1.23.5.14.81.63 1.28.85 1.35.6 2.83-1.42 4.2-.85.44.18.75.6 1.16.82.85.46 1.88.04 2.77-.34.88-.37 2-.67 2.73-.04.4.34.58.9.98 1.23.52.43 1.29.4 1.94.22.65-.18 1.27-.5 1.94-.57.68-.07 1.46.2 1.7.82.12.3.15.68.44.8.12.05.25.03.38.01l1.69-.2c.23-.03.48-.05.68.07.24.14.32.44.38.71.1.46.2.94.05 1.38-.27.79-1.21 1.08-2.04 1.2-1.88.25-3.8.1-5.7-.08-3.25-.3-6.5-.7-9.73-1.3a61.5 61.5 0 01-4.83-1.05c-1.16-.3-1.77-1.15-1.57-2.45zM2.8 110.43c-.07.74.4 1.58 1.06 1.54.46-.03.84-.44 1.29-.54 1.3-.29 2.12 2 3.43 1.76.42-.07.77-.41 1.18-.54.83-.25 1.62.39 2.3.95.68.56 1.57 1.1 2.34.65.42-.24.7-.74 1.12-.97.55-.3 1.2-.1 1.72.21.52.33.98.77 1.54.99.57.22 1.3.14 1.65-.42.16-.25.28-.63.55-.68.12-.02.23.03.33.07l1.4.58c.2.08.41.16.61.09.24-.1.37-.37.49-.62.2-.42.39-.86.35-1.33-.06-.82-.8-1.32-1.48-1.61a19.69 19.69 0 00-4.92-1.2 88.28 88.28 0 00-8.66-.92 48.76 48.76 0 00-4.4-.05c-1.07.04-1.78.73-1.9 2.04z" fill="#41C3FF"/>
    <path d="M11.2 79.1S-3.3 92.14 3.66 109.4l20.25 2.43s11.55-4.98 11.22-30.47c-2.46-.8-12.26-2.85-23.95-2.28z" fill="#A7E3FF"/>
    <path d="M34.09 82.03S23.4 92.81 23.76 110.9c5.87-4.7 11.59-15.29 10.33-28.87zM21.12 99.6c.28-3.5-3.52-4.16-5.65-1.75-1.38 1.57-4.66 3.47-6.92 1.41 3.52 4.4 12.03 7 12.57.33z" fill="#41C3FF"/>
    <path d="M9.2 93.75c2.24-1.75 5.1 1.4 4.8 3.46-.32 2.06.03 5.81 3.03 6.38-4.12.8-13.09-5.7-7.82-9.84zM11.65 83.46s-1.86 1.95-1.92 4.1l14.42 1.74s.55-3.12 2.28-4.24c-5.1-.52-14.78-1.6-14.78-1.6z" fill="#DAF3FF"/>
    <path d="M32.47 52.86a4.26 4.26 0 004.26-4.23l.2-27.87a2.8 2.8 0 00-2.74-2.77l-5.56-.97a4.18 4.18 0 00-1.69.05c-3.58.85-14.54 4.71-14.54 6.03l.67 29.76h19.4z" fill="#41C3FF"/>
    <path d="M27.75 18.1l-10.28.02v-5.04c0-1 .81-1.8 1.82-1.8l6.62-.02c1.01 0 1.83.81 1.83 1.8v5.05z" fill="#41C3FF"/>
    <path d="M27.4 52.86a3.3 3.3 0 003.3-3.3l-.04-29.89c0-1.5-1.16-2.74-2.58-2.78l-17.45.48A2.54 2.54 0 008.05 20l.08 29.58a3.3 3.3 0 003.3 3.3H27.4z" fill="#A7E3FF"/>
    <path d="M23.24 37.52a7.05 7.05 0 002.12-9.74 7.05 7.05 0 00-9.79-1.86 7.05 7.05 0 00-2.12 9.74 7.05 7.05 0 009.79 1.86z" fill="#DAF3FF"/>
    <path d="M57.62 52.86a4.26 4.26 0 004.26-4.23l.2-27.87a2.8 2.8 0 00-2.74-2.77l-5.56-.97a4.18 4.18 0 00-1.69.05c-3.58.85-14.55 4.71-14.54 6.03l.67 29.76h19.4z" fill="#41C3FF"/>
    <path d="M52.9 18.1l-10.28.02v-5.04c0-1 .8-1.8 1.82-1.8l6.62-.02c1 0 1.83.81 1.83 1.8v5.05z" fill="#41C3FF"/>
    <path d="M52.55 52.86a3.3 3.3 0 003.3-3.3l-.04-29.89c0-1.5-1.16-2.74-2.58-2.78l-17.45.48A2.54 2.54 0 0033.2 20l.08 29.58a3.3 3.3 0 003.3 3.3h15.97z" fill="#A7E3FF"/>
    <path d="M48.39 37.52a7.05 7.05 0 002.12-9.74 7.05 7.05 0 00-9.79-1.86 7.05 7.05 0 00-2.12 9.73 7.05 7.05 0 009.79 1.87z" fill="#DAF3FF"/>
    <path d="M-33.43 52.54v85.3h6.05V118.2h92.2v19.62h6.01v-85.3H-33.43zM64.8 110.9h-92.19V59.5h92.2v51.4z" fill="#A7E3FF"/>
    <g opacity=".4">
      <path opacity=".4" d="M232.1 169.43l139.35-118.6v-9.84L221.86 164.54l.91 4.9h9.32zM201.8 29.81v15.32l74.24-60.5H258.7l-56.9 45.18zM294.17-15.37l-91.89 75.1 1.02 5.45 96.14-80.55h-5.27z" fill="#fff"/>
      <path opacity=".4" d="M203.53-21.82h-6.27v175.44h6.27V-21.82z" fill="#A7E3FF"/>
    </g>
    <path d="M177.5 94.94c-11 0-22.23-20.7-23.5-23.1a2.17 2.17 0 113.84-2.03c4.38 8.3 13.69 21.27 20.01 20.77 3.46-.28 5.76-4.99 7.08-8.9a2.17 2.17 0 014.12 1.4c-2.53 7.48-6.18 11.46-10.86 11.83-.22.02-.45.03-.68.03zM102.03 185.8a2.69 2.69 0 01-2.58-3.43c11.19-38.95 3.65-63.5 3.57-63.74a2.69 2.69 0 115.13-1.63c.33 1.06 8.1 26.36-3.54 66.86a2.69 2.69 0 01-2.58 1.95zM137.26 185.8a2.69 2.69 0 01-2.58-3.43c11.18-38.95 3.65-63.5 3.57-63.74a2.69 2.69 0 115.12-1.63c.34 1.06 8.1 26.36-3.53 66.86a2.69 2.69 0 01-2.58 1.95z" fill="#fff"/>
    <path d="M104.33 6.9c-.55-.95-1.47-1.5-2.63-1.18-1.16.32-1.87 1.15-1.9 2.26 0 0-3.94-1.46-2.78.6.82 1.36 2.3 2.85 3.1 3.58 0 0 4.5-.58 5.87-1.27a20.98 20.98 0 001.17-4.43c.33-2.3-2.72.26-2.83.45z" fill="#90BC3F"/>
    <path d="M118.4 56.73l-9.63 2.3a4.73 4.73 0 01-5.76-3.66l-7.03-30.53c-.24-1.52.1-3.2 1.17-4.43l4.08-4.6a4.9 4.9 0 015.4-1.3l5.55 2.3a4.54 4.54 0 012.92 3.47l7.03 30.53a5.41 5.41 0 01-3.73 5.92z" fill="url(#paint0_linear)"/>
    <path d="M112.94 11.37c-.43-2.25-1.56-4.8-1.56-4.8l-6 4.33a2.52 2.52 0 00-2.16-.53 3 3 0 00-2.23 1.56l-7.07-1.56s-.14 3.04.44 5.26c.43 2.25 1.63 4.46 1.63 4.46l5.71-4.24c.63.62 1.61.83 2.42.93 1.23-.02 2.05-1.04 2.58-1.97l7.08 1.56c-.48-.03-.4-2.74-.84-5z" fill="url(#paint1_linear)"/>
    <path d="M138.4 60.32l-27.53-1.55a3.24 3.24 0 01-2.88-3.33l1.51-28.1a3.22 3.22 0 013.27-2.94l27.53 1.54c1.6.2 2.85 1.44 2.88 3.33l-1.51 28.1c-.3 1.83-1.66 3.14-3.27 2.95z" fill="url(#paint2_linear)"/>
    <path d="M128.84 59.9l-8.51-.53 1.75-34.34 8.51.54-1.75 34.34z" fill="url(#paint3_linear)"/>
    <path d="M138.83 19.7a3.3 3.3 0 00-1.04-.99c-3.55-2.36-8.1 2.83-9.63 4.67-.44-.51-1-.84-1.61-.83-.62.01-1.23.02-1.88.51-1.34-2.16-4.95-7.67-8.77-5.68-.4.26-.94.57-1.15.94-1.25 1.13-1.23 2.4-.9 3.1.92 2.9 7.77 4.21 10.28 4.32a2.26 2.26 0 002.17 1.79 2.1 2.1 0 002.37-1.6l.15-.03c2.32 0 9.59-.08 10.82-3.1-.01-.63.19-1.64-.81-3.1zm-22.3 1.3c-.36-.22-.52-.8-.3-1.18.1-.19.5-.45.64-.5 1.52-.72 3.66 1.55 5.14 3.67-2.66-.7-4.52-1.3-5.48-1.99zm20.84.83c-.53.94-3.22 1.35-6.37 1.73 1.68-1.88 4.08-3.96 5.44-2.9.66.14 1 .84.93 1.17z" fill="url(#paint4_linear)"/>
    <path d="M114.4 59.24L88.96 70.42c-1.51.73-3.27-.06-3.98-1.6L74 42.82a3.12 3.12 0 011.58-4.07l25.45-11.18c1.52-.73 3.27.06 3.98 1.6l10.96 25.99a3.37 3.37 0 01-1.57 4.07z" fill="url(#paint5_linear)"/>
    <path d="M105.63 63.04l-7.9 3.57L84.22 35l7.94-3.43 13.47 31.47z" fill="url(#paint6_linear)"/>
    <path d="M96.79 22.56c-.51-.17-.88-.4-1.5-.38-4.48-.53-5.98 6.21-6.56 8.74a3.61 3.61 0 00-1.74-.16c-.69.35-1.05.76-1.26 1.13-2.24-1.44-7.7-4.55-10.37-1.13-.21.37-.57.78-.7 1.45-.5 1.72-.08 2.71.47 3.04 2.14 2.26 8.83-.03 11.11-.8.67.76 1.69 1.12 2.52.74a2.44 2.44 0 001.53-2.47l.14-.04c2.06-1.04 8.44-4.51 8.54-7.7-.3-.55-.61-1.74-2.18-2.42zm-19.2 11.39c-.48-.03-.78-.58-.7-.92-.05-.15.17-.52.42-.75 1.07-1.24 3.95-.28 6.15 1.02-2.79.6-4.89.86-5.87.65zm18.95-8.79c.12 1.08-2.22 2.82-5.03 4.53.77-2.42 2.03-5.3 3.64-5.1.72-.2 1.35.43 1.39.57z" fill="url(#paint7_linear)"/>
    <path d="M87.77 38.5s-4.38 6.33-9.86 11.8a11.98 11.98 0 00-3.27 10.78c2.64 13.42 5.16 35.84 3.87 49.1a11.94 11.94 0 004.55 10.57 116.7 116.7 0 0013.55 8.91l11.8-43.68L87.78 38.5z" fill="url(#paint8_linear)"/>
    <path d="M86.54 44.59c4.4 13.64 12.84 46.1 5.79 77.64a6.24 6.24 0 004.28 7.43c20.54 5.73 48.15 1.71 58.1-.07a6.11 6.11 0 004.84-4.52c3.14-12.2 11.04-51.66-7.06-87.11a6.16 6.16 0 00-4.7-3.38c-7.88-.98-29.83-2.89-56.48 1.9a6.25 6.25 0 00-4.77 8.1z" fill="url(#paint9_linear)"/>
    <path opacity=".3" d="M108 53.37a1.03 1.03 0 01-.71-.38c-.37-.46-.3-1.13.14-1.5.2-.19 5.28-4.38 11.06-1.1.5.3.69.95.4 1.47-.28.51-.92.7-1.42.41-4.5-2.56-8.54.72-8.7.87-.23.18-.5.26-.77.23zM137.32 51.12a.97.97 0 01-.66-.35 1.02 1.02 0 01.13-1.42c.2-.16 4.93-4.08 10.33-1 .47.26.64.87.38 1.35a.97.97 0 01-1.34.4c-4.23-2.42-8.08.77-8.12.8a.97.97 0 01-.72.22z" fill="#004F74"/>
    <path d="M108.13 81.73c1.32-3.68 5.77-5.63 11.31-3.57 7.56 2.8 19.19.06 24.18-2.64a5.95 5.95 0 016.81.94c2.63 2.65 2.9 7.98.52 11.46-2.98 4.35-14.54 6.5-20.44 6.79-11.8.57-26.59-1.22-22.38-12.98z" fill="url(#paint10_linear)"/>
    <path d="M144.89 79.94s1.75-.97-.4-4.79c-.3.1-.59.22-.87.38-5 2.7-16.63 5.42-24.18 2.63-1.6-.6-3.11-.85-4.48-.83-.42 1-1.07 3.06-.04 4.1 1.4 1.39 18.53 4.07 29.97-1.5z" fill="#fff"/>
    <path d="M112.21 92.35c4.65 2.28 11.9 2.67 18.3 2.36a55.5 55.5 0 0010.2-1.58c-1.85-4.06-7.27-7.17-13.82-7.46-6.82-.3-12.7 2.53-14.68 6.68z" fill="url(#paint11_linear)"/>
    <path opacity=".3" d="M121.64 99.9s11.36 1 18.74-1.3c-4.5 6.29-15.87 4.35-18.74 1.3z" fill="#004F74"/>
    <path d="M115.23 66.33c1.9 0 3.43-1.56 3.43-3.5s-1.54-3.5-3.43-3.5a3.47 3.47 0 00-3.44 3.5c0 1.94 1.54 3.5 3.44 3.5z" fill="#004F74"/>
    <path d="M113.56 64.86c1.06 0 1.92-.88 1.92-1.96s-.86-1.96-1.92-1.96-1.92.88-1.92 1.96.86 1.96 1.92 1.96z" fill="#fff"/>
    <path d="M143.21 63.8c1.9 0 3.44-1.58 3.44-3.51 0-1.94-1.54-3.5-3.44-3.5a3.47 3.47 0 00-3.43 3.5c0 1.93 1.53 3.5 3.43 3.5z" fill="#004F74"/>
    <path d="M141.07 62.68c1.06 0 1.92-.88 1.92-1.96s-.86-1.96-1.92-1.96-1.92.88-1.92 1.96.86 1.96 1.92 1.96z" fill="#fff"/>
    <path d="M140.05 109.42l23.3-5.97s-.4 18.8-3.05 23.8c-2.65 5.02-36.02 6.54-36.02 6.54s-21.16-.36-30.9-4.68c-9.73-4.32-15.13-10.57-15.07-11.64.07-1.07-.75-12.39.55-15.2 4.8 1.63 31.35 8.21 31.35 8.21l17.27-2.1 7.64 3.17 4.93-2.13z" fill="#FCB70B"/>
    <path d="M78.31 117.47c-.07 1.07 5.34 7.32 15.07 11.64l.14.06c-2.14-3.09-2.15-8.05-1.12-11.03.94-2.72 1.71-8.28 2.12-11.62-6.7-1.72-13.47-3.5-15.66-4.26-1.3 2.82-.48 14.14-.55 15.21z" fill="#F37021"/>
    <path d="M78.8 97.79l16.03 6 32.65 4.6-3.25 14.47-30.1-13.2-15.29-5.82s-3.31-4.16-.05-6.05zM140.05 109.42l4.85 13.18 19.38-14.88 1.52-7.5-25.75 9.2z" fill="#FFDA7D"/>
    <path d="M127.48 108.39l12.57 1.03-6.79 8.53-5.78-9.56z" fill="#F37021"/>
    <path d="M78.84 103.84l15.2 5.8.79-5.84-16.04-6.02c-3.26 1.9.05 6.06.05 6.06z" fill="#FCB70B"/>
    <path d="M117.99 105c-7.64 0-14.2-1.58-19.64-4.77-12.6-7.36-14.21-20.45-14.28-21a2.17 2.17 0 014.32-.5c.01.11 1.49 11.56 12.22 17.79 11.74 6.81 30.57 5.06 54.46-5.06a2.17 2.17 0 111.7 4c-15.01 6.36-27.98 9.54-38.78 9.54z" fill="#fff"/>
    <path d="M296.86 108.63a.75.75 0 00-.6-.54L227.3 92.76c-2.72-.6-5.58-.5-8.25.31l-47.82 14.47a.73.73 0 00-.56.7l-2.79-.16a3.54 3.54 0 012.54-3.21l47.82-14.47a19.11 19.11 0 019.67-.36l68.97 15.33a3.53 3.53 0 012.66 2.47l-2.67.8z" fill="#004F74"/>
    <path d="M295.3 152.02c-2.52 0-9.04-.6-26.98-2.23-14.84-1.35-31.97-2.96-41.24-3.83a8.76 8.76 0 01-7.91-8.9l1.1-46.1c.01-.78.65-1.45 1.42-1.37a1.4 1.4 0 011.37 1.43l-1.1 46.1a5.96 5.96 0 005.38 6.06c40.31 3.8 66.42 6.14 68.42 6.17a1.4 1.4 0 011.31 2.17c-.2.3-.34.5-1.77.5z" fill="#004F74"/>
    <path d="M168.4 109.3c-.12 0-.23-.01-.35-.04L153 105.31a3.53 3.53 0 01-2.71-3.31 3.53 3.53 0 012.38-3.56l35.1-12.5a20.96 20.96 0 0111.2-.8l22.97 4.48a1.4 1.4 0 11-.56 2.73l-22.96-4.48c-3.24-.66-6.6-.42-9.71.69l-35.1 12.5a.77.77 0 00-.54.8c.01.19.09.62.61.75l15.05 3.94a1.4 1.4 0 01-.33 2.75z" fill="#004F74"/>
    <path d="M220.17 95.7l13.98-.4v-6.88a2.39 2.39 0 00-2.48-2.4l-9.02.26a2.56 2.56 0 00-2.48 2.54v6.87z" fill="#41C3FF"/>
    <path d="M211.4 144.9l7.09 3.62 17.99-1.65a4.23 4.23 0 003.71-4.09l.88-41.63c0-2.04-19.1-6.93-21.15-6.7l-8.53.91a4.23 4.23 0 00-3.72 4.1v40.61c0 2.04 1.12 3.44 3.73 4.84z" fill="#41C3FF"/>
    <path d="M219.72 148.65l23.7-2.7a4.15 4.15 0 003.5-4.09V97c0-2.03-1.57-3.5-3.5-3.28l-23.7.73a4.14 4.14 0 00-3.52 4.1v46.83c.01 2.03 1.58 3.5 3.52 3.28z" fill="#A7E3FF"/>
    <path d="M237.82 120.64c4.06-3.66 4.56-9.72 1.12-13.55-3.45-3.83-9.53-3.97-13.59-.32-4.06 3.65-4.55 9.72-1.11 13.54 3.44 3.83 9.53 3.98 13.58.33z" fill="#DAF3FF"/>
    <path d="M243.04 157.41h28.09a5 5 0 004.94-4.28l.19-1.25c.85-5.88.9-11.86.15-17.76l-.4-3.1a5 5 0 00-4.96-4.36h-28.02a5 5 0 00-4.92 4.15 65.7 65.7 0 000 22.45 5 5 0 004.93 4.15z" fill="#41C3FF"/>
    <path d="M275.35 134.16h-36.62a3.42 3.42 0 01-3.41-3.42v-3a3.42 3.42 0 013.41-3.42h36.62a3.42 3.42 0 013.41 3.42v3a3.42 3.42 0 01-3.41 3.42z" fill="#41C3FF"/>
    <path d="M235.02 157.41h28.09a5 5 0 004.95-4.28l.18-1.25c.85-5.88.9-11.86.15-17.76l-.4-3.1a5 5 0 00-4.95-4.36h-28.02a5 5 0 00-4.93 4.15 65.7 65.7 0 000 22.45 5 5 0 004.93 4.15z" fill="#A7E3FF"/>
    <path d="M267.33 134.16h-36.61a3.42 3.42 0 01-3.42-3.42v-3a3.42 3.42 0 013.41-3.42h36.62a3.42 3.42 0 013.41 3.42v3a3.42 3.42 0 01-3.41 3.42z" fill="#41C3FF"/>
    <path d="M255.16 138.47h-12.28a2.16 2.16 0 010-4.31h12.28a2.16 2.16 0 010 4.31z" fill="#DAF3FF"/>
    <path d="M194.2 109.53c.15-.97 1.1-1.9 2.05-1.62.66.19 1.07.84 1.69 1.12 1.78.8 3.74-1.86 5.55-1.12.58.24.97.79 1.53 1.09 1.11.6 2.47.05 3.64-.45s2.64-.88 3.6-.06c.53.45.77 1.18 1.3 1.63.7.56 1.7.53 2.56.29.86-.24 1.68-.65 2.56-.75.9-.09 1.92.25 2.25 1.08.16.39.2.9.58 1.05a1 1 0 00.5.03l2.22-.28c.3-.03.64-.07.9.1.32.19.43.58.5.94.15.6.28 1.24.08 1.82-.37 1.03-1.6 1.42-2.7 1.57-2.48.34-5.01.14-7.51-.1-4.3-.4-8.6-.92-12.85-1.7a81.8 81.8 0 01-6.38-1.4c-1.53-.4-2.33-1.52-2.07-3.24z" fill="#41C3FF"/>
    <path d="M194.58 111.3s-19.11 17.23-9.93 40l26.73 3.22s15.24-6.57 14.8-40.21c-3.25-1.08-16.17-3.77-31.6-3.01z" fill="#A7E3FF"/>
    <path d="M224.8 115.17s-14.1 14.23-13.63 38.1c7.74-6.19 15.29-20.17 13.62-38.1zM207.67 138.35c.38-4.61-4.63-5.48-7.44-2.3-1.82 2.07-6.16 4.58-9.15 1.86 4.66 5.82 15.88 9.25 16.6.44z" fill="#41C3FF"/>
    <path d="M191.96 130.64c2.94-2.3 6.72 1.85 6.31 4.57-.41 2.72.05 7.67 4.02 8.42-5.44 1.05-17.29-7.54-10.33-12.99zM195.18 117.06s-2.46 2.57-2.54 5.42l19.03 2.28s.73-4.11 3.02-5.58c-6.74-.69-19.51-2.12-19.51-2.12z" fill="#DAF3FF"/>
    <path d="M255.8 83.09c.15-.98 1.1-1.9 2.05-1.63.65.19 1.07.84 1.69 1.12 1.78.8 3.74-1.86 5.55-1.11.58.23.97.78 1.53 1.08 1.11.6 2.47.05 3.64-.45 1.17-.49 2.64-.88 3.6-.05.53.45.77 1.17 1.3 1.62.69.57 1.7.53 2.56.3.86-.25 1.68-.66 2.56-.75.9-.1 1.92.24 2.25 1.08.15.38.2.9.58 1.05a1 1 0 00.5.02l2.22-.27c.3-.04.64-.07.9.09.31.19.42.58.5.94.14.6.28 1.24.07 1.83-.36 1.03-1.6 1.42-2.68 1.57-2.5.34-5.02.14-7.53-.1-4.3-.4-8.59-.93-12.84-1.7-2.13-.4-4.28-.84-6.38-1.4-1.53-.41-2.33-1.53-2.07-3.24zM245.1 126.2c-.1.99.53 2.1 1.4 2.04.6-.03 1.1-.58 1.7-.71 1.71-.39 2.8 2.65 4.53 2.33.55-.1 1.01-.55 1.56-.72 1.1-.34 2.14.5 3.03 1.25.9.74 2.08 1.45 3.1.86.54-.32.9-.97 1.47-1.29.72-.4 1.58-.14 2.26.29.69.42 1.3 1 2.04 1.3.75.28 1.71.18 2.18-.55.21-.34.36-.83.73-.9.15-.02.3.03.43.1l1.86.76c.25.1.53.2.79.1.31-.1.5-.47.65-.8.25-.55.5-1.15.46-1.76-.08-1.08-1.06-1.74-1.96-2.13a26 26 0 00-6.5-1.59 117.1 117.1 0 00-11.42-1.2 64.8 64.8 0 00-5.8-.07c-1.42.06-2.35.97-2.51 2.7z" fill="#41C3FF"/>
    <path d="M256.18 84.85s-19.11 17.23-9.93 40.01l26.73 3.21s15.24-6.57 14.8-40.21c-3.25-1.07-16.17-3.77-31.6-3.01z" fill="#A7E3FF"/>
    <path d="M286.4 88.73s-14.1 14.22-13.63 38.1c7.74-6.2 15.29-20.18 13.62-38.1zM269.27 111.9c.38-4.61-4.63-5.48-7.44-2.3-1.82 2.07-6.16 4.59-9.15 1.87 4.66 5.81 15.88 9.24 16.6.44z" fill="#41C3FF"/>
    <path d="M253.56 104.2c2.94-2.31 6.73 1.84 6.31 4.56-.41 2.72.05 7.67 4.02 8.43-5.44 1.04-17.28-7.55-10.33-13zM256.78 90.61s-2.46 2.57-2.54 5.42l19.03 2.29s.73-4.12 3.02-5.6c-6.74-.68-19.51-2.1-19.51-2.1z" fill="#DAF3FF"/>
    <path d="M186.53 160.92a1.4 1.4 0 01-1.4-1.4V112.8a1.4 1.4 0 112.8 0v46.74c0 .77-.63 1.4-1.4 1.4zM206.22 161.57a1.4 1.4 0 01-1.4-1.4v-44.45a1.4 1.4 0 112.8 0v44.45c0 .77-.63 1.4-1.4 1.4zM278.36 160.78a1.4 1.4 0 01-1.4-1.4V121.4a1.4 1.4 0 112.8 0v37.98c0 .77-.63 1.4-1.4 1.4zM289.05 156.37a1.4 1.4 0 01-1.4-1.4V115.5a1.4 1.4 0 112.8 0v39.48c0 .77-.63 1.4-1.4 1.4zM225.9 163.39a1.4 1.4 0 01-1.39-1.4v-43.25a1.4 1.4 0 112.79 0V162c0 .77-.63 1.4-1.4 1.4zM245.93 165.4a1.4 1.4 0 01-1.4-1.4v-41.73a1.4 1.4 0 112.8 0V164c0 .78-.63 1.4-1.4 1.4z" fill="#41C3FF"/>
    <path d="M267.49 126.23c-.94 0-1.89-.07-2.83-.21l-93.75-14.18a3.54 3.54 0 01-3.04-3.76l2.79.16c-.01.12 0 .74.67.84l93.75 14.18c3.57.54 7.27-.14 10.42-1.9l20.98-11.8c.53-.3.4-.83.37-.93l2.68-.78a3.57 3.57 0 01-1.68 4.14l-20.99 11.8a19.17 19.17 0 01-9.37 2.44z" fill="#004F74"/>
    <path d="M266.63 166.05a1.4 1.4 0 01-.55-2.68l26.46-11.41a6.29 6.29 0 003.35-5.42l.99-37.44a1.4 1.4 0 012.79.07l-.99 37.44a9.1 9.1 0 01-4.95 7.87l-26.54 11.45c-.18.08-.37.12-.56.12z" fill="#004F74"/>
    <path d="M264.02 166.89c-.14 0-.3 0-.44-.02l-86.71-6.69a8.88 8.88 0 01-8.2-8.52l-1.67-43.7a1.4 1.4 0 011.34-1.44c.71-.02 1.42.57 1.45 1.34l1.67 43.7a6.1 6.1 0 005.62 5.84l86.71 6.69a3.04 3.04 0 003.3-3.05v-36.2a1.4 1.4 0 112.79 0v36.2a5.87 5.87 0 01-5.86 5.85z" fill="#004F74"/>
    <path d="M183.82 89.39a4.19 4.19 0 01-2.4-3.69c-.03-2.17.63-5.11 4.14-6.06 3.68-1 6.1 1.79 7.4 3.97a4.2 4.2 0 01-.36 4.87c-1.45 1.66-4.14 3.14-8.78.9zM157.18 98.7c-1.97-.72-3.32-2.2-3.35-3.87-.03-2.28.89-5.36 5.78-6.36 5.13-1.04 8.5 1.88 10.3 4.17a3.55 3.55 0 01-.5 5.1c-2.02 1.74-5.77 3.3-12.23.95zM177.98 51.36s.71 5.68 5.7 6.96c-3.31.98-5.13 2.63-5.93 5.88 0 0-.72-4.96-5.3-6.28 0 0 4.93-.6 5.53-6.56zM224.46 57.14s.95 7.56 7.6 9.26c-4.41 1.3-6.84 3.5-7.9 7.83 0 0-.95-6.6-7.05-8.36 0 0 6.55-.8 7.35-8.73zM236.03 70.03s.47 3.71 3.73 4.55c-2.16.64-3.35 1.72-3.88 3.84 0 0-.46-3.24-3.46-4.1 0 0 3.22-.4 3.61-4.29zM311.1 101.93s.47 3.71 3.74 4.55c-2.17.64-3.36 1.72-3.88 3.84 0 0-.47-3.24-3.47-4.1 0 0 3.22-.4 3.61-4.29z" fill="#fff"/>
    <path d="M321.65 145.47s-15.23-12.1-14.37-25.15c10.18 0 20.12 9.35 20.12 9.35s-5.28-21.92 4.03-30.77c12.58 6.06 17.24 23.75 17.24 23.75s-4.2-38.19 1.86-47.5c13.5 16.3 19.1 47.5 19.1 47.5v21.9l-47.98.92z" fill="#41C3FF"/>
    <path d="M348.47 143.75s-9.22-7.32-8.7-15.2c6.16 0 12.17 5.64 12.17 5.64s-3.19-13.25 2.44-18.6c11.06 4 13.85 23.56 13.85 23.56l-19.76 4.6z" fill="#A7E3FF"/>
    <path d="M19.99 162.3s32.14-14.52 33.94-42.44c-23.54.9-38.01 30.8-38.01 30.8s19.48-31.6 13.63-43.9c-10.2 1.34-18.21 21.96-18.21 21.96s1.66-27.5-7.86-39.05c-11.76 26.75-4.59 42.67-4.59 42.67l2.78 30.4 18.32-.43z" fill="#41C3FF"/>
  </g>
  <defs>
    <linearGradient id="paint0_linear" x1="107.6" y1="19.55" x2="115.16" y2="52.13" gradientUnits="userSpaceOnUse">
      <stop stop-color="#89C340"/>
      <stop offset="1" stop-color="#6FA329"/>
    </linearGradient>
    <linearGradient id="paint1_linear" x1="102.4" y1="10.96" x2="103.45" y2="15.47" gradientUnits="userSpaceOnUse">
      <stop stop-color="#04AE59"/>
      <stop offset="1" stop-color="#047B35"/>
    </linearGradient>
    <linearGradient id="paint2_linear" x1="126.36" y1="27.56" x2="124.73" y2="57.9" gradientUnits="userSpaceOnUse">
      <stop stop-color="#E90089"/>
      <stop offset="1" stop-color="#C4007C"/>
    </linearGradient>
    <linearGradient id="paint3_linear" x1="125.57" y1="19.87" x2="123.71" y2="54.18" gradientUnits="userSpaceOnUse">
      <stop stop-color="#F4901E"/>
      <stop offset="1" stop-color="#EA5F01"/>
    </linearGradient>
    <linearGradient id="paint4_linear" x1="124.48" y1="21.39" x2="133.76" y2="38.86" gradientUnits="userSpaceOnUse">
      <stop stop-color="#F4901E"/>
      <stop offset="1" stop-color="#EA5F01"/>
    </linearGradient>
    <linearGradient id="paint5_linear" x1="89.28" y1="35.18" x2="101.61" y2="63.64" gradientUnits="userSpaceOnUse">
      <stop stop-color="#F4901E"/>
      <stop offset="1" stop-color="#EA5F01"/>
    </linearGradient>
    <linearGradient id="paint6_linear" x1="91.41" y1="27.29" x2="105.08" y2="58.84" gradientUnits="userSpaceOnUse">
      <stop stop-color="#EA1D25"/>
      <stop offset="1" stop-color="#A80000"/>
    </linearGradient>
    <linearGradient id="paint7_linear" x1="87.49" y1="30.33" x2="86.68" y2="27.14" gradientUnits="userSpaceOnUse">
      <stop stop-color="#EA1D25"/>
      <stop offset="1" stop-color="#A80000"/>
    </linearGradient>
    <linearGradient id="paint8_linear" x1="94.08" y1="57.11" x2="72.29" y2="87.68" gradientUnits="userSpaceOnUse">
      <stop stop-color="#3EBDFF"/>
      <stop offset="1" stop-color="#0B75C4"/>
    </linearGradient>
    <linearGradient id="paint9_linear" x1="142.17" y1="41.04" x2="100.78" y2="99.11" gradientUnits="userSpaceOnUse">
      <stop stop-color="#74D3FF"/>
      <stop offset="1" stop-color="#0EB3FF"/>
    </linearGradient>
    <linearGradient id="paint10_linear" x1="131.2" y1="83.41" x2="130.41" y2="87.53" gradientUnits="userSpaceOnUse">
      <stop offset="0" stop-color="#0095DA"/>
      <stop offset="1" stop-color="#0072A7"/>
    </linearGradient>
    <linearGradient id="paint11_linear" x1="129.5" y1="89.82" x2="127.05" y2="94.9" gradientUnits="userSpaceOnUse">
      <stop stop-color="#EA1D25"/>
      <stop offset="1" stop-color="#A80000"/>
    </linearGradient>
  </defs>
</svg>