<svg width="360" height="135" fill="none" xmlns="http://www.w3.org/2000/svg">
  <mask id="a" maskUnits="userSpaceOnUse" x="0" y="0" width="360" height="135">
    <path d="M360 0H0v135h360V0z" fill="#fff"/>
  </mask>
  <g mask="url(#a)">
    <path d="M384.98-18.5H-43.44v165.13h428.42V-18.51z" fill="#DAF3FF"/>
    <path d="M204.15 149.76l47.21 6.67c5.66.8 11.25-3.5 13.35-10.28l.51-1.67a309.43 309.43 0 0013.72-97.05l-.03-1.74c-.14-7.1-4.31-12.79-9.98-13.59l-47.32-6.69c-5.64-.8-11.2 3.47-13.32 10.2a309.42 309.42 0 00-14.17 97.08l.05 3.4c.1 7.14 4.29 12.87 9.98 13.67z" fill="#0095DA"/>
    <path d="M197.33 148.9l47.22 6.68c5.66.8 11.25-3.52 13.35-10.33l.51-1.67a311.52 311.52 0 0013.77-97.39l-.04-1.74c-.13-7.12-4.3-12.82-9.96-13.63l-47.33-6.68c-5.64-.8-11.2 3.48-13.32 10.24a311.44 311.44 0 00-14.22 97.4l.05 3.42c.1 7.16 4.28 12.9 9.97 13.7z" fill="#41C3FF"/>
    <path d="M201.78 142.02l40.4 5.71c4.84.69 9.64-3.14 11.46-9.15l.45-1.47a283.06 283.06 0 0012.14-85.9l-.02-1.53c-.09-6.28-3.64-11.29-8.48-11.97l-40.5-5.73c-4.82-.68-9.6 3.11-11.44 9.08a283.04 283.04 0 00-12.53 85.9l.03 3.02c.06 6.3 3.62 11.36 8.49 12.04z" fill="#A7E3FF"/>
    <path d="M201.17 94.57l2.93-20s3.3-24.14 28.54-23.05c23.44 2.4 22.11 28.46 22.11 28.46l-2.4 18.94-51.18-4.35z" fill="#41C3FF"/>
    <path d="M204.15 92.4l2.6-17.82s2.96-21.51 25.44-20.54c20.89 2.13 19.7 25.36 19.7 25.36l-2.14 16.87-45.6-3.88z" fill="#004F74"/>
    <path d="M212.12 75.52s2.9-21.07 24.77-20.55c-1.43-.44-2.99-.76-4.7-.93-22.48-.97-25.43 20.54-25.43 20.54l-2.61 17.81 5.44.47 2.53-17.34z" fill="#0072A7"/>
    <path d="M207.54 71.33c-.6 1.94-.78 3.25-.78 3.25l-2.61 17.81 5.44.47 2.53-17.34s.62-4.46 3.41-9.23c-3.88.92-6.4 3-7.99 5.04z" fill="#0095DA"/>
    <path d="M262.8 99.04l-67.74-6.5a281.8 281.8 0 00-1.8 34.43l.03 3c.06 6.32 3.62 11.36 8.49 12.05l40.4 5.71c4.84.69 9.64-3.14 11.46-9.15l.45-1.47a281.83 281.83 0 008.71-38.07z" fill="#A7E3FF"/>
    <path d="M225.05 40.06l22.98 3.25a5.01 5.01 0 005.66-4.26l.1-.73a5.01 5.01 0 00-4.25-5.66l-22.99-3.25a5.01 5.01 0 00-5.66 4.26l-.1.73a5.01 5.01 0 004.26 5.66z" fill="#41C3FF"/>
    <path d="M184.8 89.86v3.39l71.11 8.94 6.73-2.1.52-3.34" fill="#0072A7"/>
    <path d="M195.48 88.93l-10.69.93 71.6 8.53 6.77-1.64-67.68-7.82z" fill="#41C3FF"/>
    <path d="M193.96 104.53l66.52 7.3.63-3.1-66.89-7.7c-.1 1.17-.18 2.33-.26 3.5zM193.64 109.55l60.52 27.32c.53-1.75 1.04-3.5 1.54-5.27l-61.9-24.55-.16 2.5z" fill="#8CDAFF"/>
    <path d="M136.1 16.18a2.47 2.47 0 00-4.72.45l-.01.01s-3.9-1.95-2.92.28c.67 1.5 1.97 3.08 2.76 4 0 0 4.67-.01 6-.58.6-1.08 1.45-2.94 1.8-4.43.52-2.27-2.64.07-2.9.27zM144.19 67.31l-10.02 1.07a5 5 0 01-5.5-4.44l-3.35-31.33a5 5 0 011.69-4.3l4.63-4.03a5 5 0 015.7-.61l5.38 2.96a5 5 0 012.57 3.85l3.34 31.33a5 5 0 01-4.44 5.5z" fill="#90BC3F"/>
    <path d="M144.22 21.54c-.2-2.28-.97-4.9-.97-4.9l-6.73 3.63a3.2 3.2 0 00-4.67.32l-7.1-2.4s-.5 2.97-.3 5.24c.19 2.32 1.14 4.67 1.14 4.67l6.3-3.43a3.2 3.2 0 005.26-.51l6.94 2.4s.32-2.71.13-5.02z" fill="url(#paint0_linear)"/>
    <path d="M164.15 73.47l-27.86-4.94a3.08 3.08 0 01-2.5-3.57l4.94-27.86c.3-1.67 1.9-2.79 3.57-2.5l27.86 4.94c1.67.3 2.8 1.9 2.5 3.57l-4.94 27.86a3.08 3.08 0 01-3.57 2.5z" fill="url(#paint1_linear)"/>
    <path d="M154.6 71.78l-8.77-1.56 6.01-33.92 8.77 1.55-6 33.93z" fill="url(#paint2_linear)"/>
    <path d="M169.47 33c-.3-.48-.65-.9-1.04-1.21-3.46-2.82-8.56 1.82-10.3 3.59a2.44 2.44 0 00-3.33-.79c-1.06-2.42-4.07-8.18-8.19-6.86-.48.15-.96.4-1.41.74-1.4 1.06-1.52 2.17-1.37 2.9.62 3.05 7.46 5.05 9.83 5.65a2.43 2.43 0 004.55.82l.1.01c2.23.3 9.65 1.02 11.38-1.65.41-.64.7-1.7-.22-3.2zm-22.77-1.37c-.4-.28-.35-.91-.12-1.24.15-.2.49-.42.73-.47 1.65-.53 3.5 1.94 4.72 4.24a20.52 20.52 0 01-5.33-2.53zm21.06 3.32c-.6.9-3.35 1.04-6.72.85 1.97-1.7 4.6-3.32 5.94-2.22.74.41.96 1.08.78 1.37z" fill="url(#paint3_linear)"/>
    <path d="M141.43 70.84l-28.17 8.33A3.2 3.2 0 01109.3 77l-8.33-28.17a3.2 3.2 0 012.16-3.97l28.16-8.33a3.2 3.2 0 013.97 2.16l8.34 28.17a3.2 3.2 0 01-2.16 3.97z" fill="url(#paint4_linear)"/>
    <path d="M131.78 73.7l-8.87 2.61-10.14-34.3 8.86-2.61 10.15 34.3z" fill="url(#paint5_linear)"/>
    <path d="M127.62 30.78c-.5-.3-1.02-.52-1.53-.64-4.53-1-7.12 5.66-7.9 8.1a2.53 2.53 0 00-3.47.83c-2.11-1.76-7.56-5.72-10.78-2.59-.38.37-.7.83-.97 1.35-.81 1.64-.4 2.72.08 3.33 1.98 2.54 9.27 1.23 11.74.7a2.53 2.53 0 004.6-1.36l.1-.03c2.2-.77 9.44-3.53 9.8-6.81.1-.78-.13-1.91-1.67-2.88zm-21.8 9.3c-.5-.09-.74-.7-.68-1.11.04-.26.26-.61.46-.78 1.29-1.25 4.15.19 6.35 1.76-2.78.4-4.92.3-6.12.12zm21.1-6.69c-.12 1.12-2.62 2.52-5.84 3.9 1.05-2.48 2.73-5.21 4.49-4.82.88.05 1.4.57 1.36.92z" fill="url(#paint6_linear)"/>
    <path d="M207.63 115.33c-.08 0-.16 0-.24-.02a2.25 2.25 0 01-2-2.47c.02-.18 1.74-17.89-7.13-25.2-6.9-5.69-25.48 7.84-31.44 13.02a2.25 2.25 0 01-2.95-3.39c.25-.22 6.34-5.5 13.78-9.85 10.65-6.22 18.54-7.31 23.47-3.25 10.75 8.85 8.83 28.32 8.74 29.14a2.25 2.25 0 01-2.23 2.02z" fill="#fff"/>
    <path d="M200.23 112.96c-.52 4.22.97 11.34 7.4 9.85 0 0-.06 8.88 2.01 8.54 2.08-.33 3.91-16.89 2.3-21.26-1.41-3.86-11.19-1.35-11.71 2.87z" fill="#fff"/>
    <path d="M121.4 141.74s-9.17.02-16.91-4.25a11.11 11.11 0 01-5.42-7.1c-4.85-19.86-4.57-69.88-.26-74.63 4.63-5.09 21.52-6.93 21.52-6.93l1.07 92.9z" fill="url(#paint7_linear)"/>
    <path d="M111.11 135.05c-1.52-14.37-5.15-57.34 2.58-81.2.9-2.77 3.54-4.73 6.64-5.02 10.73-1 33.48-1.84 54.62 2.74 4.28.93 6.93 4.94 5.88 8.88-3.55 13.36-7.13 40.77-3.62 70.82.44 3.7-2.26 7.08-6.19 7.82-11.03 2.11-33.69 5.02-54.08 2.34-3.25-.43-5.5-3.34-5.83-6.38z" fill="url(#paint8_linear)"/>
    <path opacity=".3" d="M128.07 68.4a1.02 1.02 0 01-.36-1.84c.22-.15 5.54-3.6 10.8.1a1.02 1.02 0 01-1.18 1.67c-4.1-2.9-8.32-.19-8.5-.07-.23.15-.5.2-.76.15zM156.64 69.27a.95.95 0 01-.35-1.74c.21-.13 5.18-3.36 10.1.1a.95.95 0 01-1.1 1.56c-3.86-2.72-7.9-.1-7.94-.07a.95.95 0 01-.71.15z" fill="#004F74"/>
    <path d="M124.33 95.53c1.47-3.44 5.89-5.05 11.16-2.8 7.18 3.06 18.61 1.09 23.6-1.2a5.88 5.88 0 016.56 1.24c2.4 2.67 2.4 7.75-.1 10.92-3.12 3.98-14.45 5.4-20.2 5.36-11.48-.08-25.72-2.57-21.02-13.52z" fill="url(#paint9_linear)"/>
    <path d="M160.09 95.78s1.75-.82-.14-4.57c-.29.08-.58.18-.86.31-4.99 2.3-16.41 4.27-23.6 1.2a12.24 12.24 0 00-4.3-1.01c-.46.92-1.2 2.85-.25 3.88 1.28 1.4 17.76 4.87 29.15.2z" fill="#fff"/>
    <path d="M127.73 105.84c4.4 2.41 11.41 3.17 17.63 3.21 2.6.02 6.37-.27 9.99-.95-1.59-3.96-6.69-7.2-13.02-7.83-6.61-.66-12.47 1.73-14.6 5.57z" fill="url(#paint10_linear)"/>
    <path opacity=".3" d="M136.49 113.53s10.97 1.54 18.25-.24c-4.7 5.73-15.63 3.28-18.25.23z" fill="#004F74"/>
    <path d="M134.11 81.43a3.34 3.34 0 100-6.67 3.34 3.34 0 000 6.67z" fill="#004F74"/>
    <path d="M132.5 79.86a1.87 1.87 0 100-3.74 1.87 1.87 0 000 3.74z" fill="#fff"/>
    <path d="M161.41 81.88a3.34 3.34 0 100-6.67 3.34 3.34 0 000 6.67z" fill="#004F74"/>
    <path d="M159.3 80.6a1.87 1.87 0 100-3.73 1.87 1.87 0 000 3.73z" fill="#fff"/>
    <path d="M175.93 114.4s.58 12.7 1.88 15.98c1.3 3.28-1.52 8.35-6.89 9.54-5.37 1.2-28.04 5.73-55.4 2.24-13.7-3.27-15.8-6.43-16.2-8.12-.41-1.7-4.32-17.34-3.33-21.33 4.58 2.8 17.31 5.83 17.31 5.83l27.52 2.22 6.78 2.21 5.55-2.35 22.78-6.23z" fill="#FCB70B"/>
    <path d="M140.82 120.77l12.33-.16-6.17 7.7-6.16-7.55z" fill="#F37021"/>
    <path d="M153.15 120.61l5.59 9.33 18.24-12.12-.39-5.92-23.44 8.71zM140.82 120.77l-31.31-5.58-13.24-5.54s-3.15 1.05.4 4.87l13.21 6.57 26.26 9.67 4.68-10z" fill="#FFDA7D"/>
    <path d="M109.42 117.54c-4.13-1.12-10.47-3.02-13.43-4.83-1 3.98 2.92 19.63 3.32 21.33.4 1.7 2.5 4.85 16.2 8.12-5.5-9.63-6.12-20.06-6.09-24.62z" fill="#F37021"/>
    <path d="M96.27 109.65s-3.15 1.05.4 4.87l12.84 6.38c-.2-3.48 0-5.71 0-5.71l-13.24-5.54z" fill="#FCB70B"/>
    <path d="M134.68 109.75a2.36 2.36 0 01-2.27-1.74c-.05-.18-4.87-17.5-13.08-22.64a2.67 2.67 0 00-2.5-.3c-4.48 1.57-9.6 12.1-11.77 18.37a2.36 2.36 0 01-4.46-1.55c.65-1.87 6.58-18.43 14.67-21.28a7.38 7.38 0 016.56.76c9.77 6.12 14.92 24.61 15.13 25.4a2.36 2.36 0 01-2.28 2.98z" fill="#fff"/>
    <path d="M127.88 110.53c.34 4.24 3.24 10.92 9.24 8.16 0 0 1.73 8.7 3.7 7.96 1.97-.75.41-17.34-2.05-21.3-2.17-3.48-11.23.95-10.89 5.18z" fill="#fff"/>
    <path d="M314.55-21.61c-3.2 0-5.9 2.5-6.13 5.7l-.44 6.14a334.26 334.26 0 00-.11 46.33l.6 8.83a6.16 6.16 0 006.12 5.73h52.95c3.2 0 5.83-2.4 6.12-5.57 1.9-20.44 1.9-41.16 0-61.59a6.12 6.12 0 00-6.12-5.57h-53z" fill="#D6F2FE"/>
    <g opacity=".4" fill="#fff">
      <path opacity=".4" d="M337.18-21.61l-29.95 27.4c-.17 6.93-.13 13.88.13 20.8l48.2-48.2h-18.38zM367.54-21.61h-3.36l-56.34 57.7.03.47.55 8.19 61.47-65.9a6.15 6.15 0 00-2.35-.46zM367.54 51.12c3.2 0 5.83-2.4 6.12-5.57a333.2 333.2 0 001.36-25.51l-30.4 31.08h22.92z"/>
    </g>
    <path d="M365.34 53.98H316.8c-6.04 0-11.1-4.72-11.5-10.75l-.54-8.1a312.5 312.5 0 01.1-43.28l.4-5.63c.44-6 5.49-10.7 11.5-10.7h48.58c5.99 0 10.92 4.5 11.47 10.46a312.05 312.05 0 010 57.54 11.47 11.47 0 01-11.47 10.46zm-48.58-72.56c-2.94 0-5.4 2.3-5.61 5.22l-.41 5.64a306.45 306.45 0 00-.1 42.46l.54 8.1a5.65 5.65 0 005.62 5.25h48.54a5.6 5.6 0 005.6-5.11 306.05 306.05 0 000-56.45 5.6 5.6 0 00-5.6-5.11h-48.58z" fill="#A7E3FF"/>
    <path d="M39.26 49.87h27.18c2.4 0 4.44-1.77 4.78-4.14l.18-1.2c.82-5.7.87-11.48.14-17.19l-.38-3a4.83 4.83 0 00-4.8-4.21h-27.1a4.84 4.84 0 00-4.76 4 63.52 63.52 0 000 21.73 4.84 4.84 0 004.76 4z" fill="#41C3FF"/>
    <path d="M70.52 27.37H35.1a3.3 3.3 0 01-3.3-3.3v-2.9a3.3 3.3 0 013.3-3.31h35.42a3.3 3.3 0 013.3 3.3v2.9a3.3 3.3 0 01-3.3 3.31z" fill="#41C3FF"/>
    <path d="M31.5 49.87h27.18c2.4 0 4.44-1.77 4.79-4.14l.17-1.2c.83-5.7.88-11.48.15-17.19l-.39-3a4.83 4.83 0 00-4.8-4.21H31.5a4.84 4.84 0 00-4.76 4 63.52 63.52 0 000 21.73 4.84 4.84 0 004.76 4z" fill="#A7E3FF"/>
    <path d="M62.76 27.37H27.34a3.3 3.3 0 01-3.3-3.3v-2.9a3.3 3.3 0 013.3-3.31h35.42a3.3 3.3 0 013.3 3.3v2.9a3.3 3.3 0 01-3.3 3.31z" fill="#41C3FF"/>
    <path d="M50.99 31.55H39.12a2.09 2.09 0 110-4.18h11.87a2.09 2.09 0 110 4.18z" fill="#DAF3FF"/>
    <path d="M41.94 108.67h27.18c2.4 0 4.44-1.77 4.78-4.14l.18-1.2c.82-5.7.87-11.48.14-17.19l-.38-3a4.83 4.83 0 00-4.8-4.22h-27.1a4.84 4.84 0 00-4.76 4.01 63.53 63.53 0 000 21.73c.4 2.32 2.4 4 4.76 4z" fill="#41C3FF"/>
    <path d="M73.2 86.17H37.78a3.3 3.3 0 01-3.3-3.3v-2.9a3.3 3.3 0 013.3-3.31H73.2a3.3 3.3 0 013.3 3.3v2.9a3.3 3.3 0 01-3.3 3.31z" fill="#41C3FF"/>
    <path d="M34.18 108.67h27.18c2.4 0 4.44-1.77 4.78-4.14l.18-1.2c.83-5.7.87-11.48.15-17.19l-.39-3a4.83 4.83 0 00-4.8-4.22h-27.1a4.84 4.84 0 00-4.76 4.01 63.53 63.53 0 000 21.73c.4 2.32 2.41 4 4.76 4z" fill="#A7E3FF"/>
    <path d="M65.44 86.17H30.02a3.3 3.3 0 01-3.3-3.3v-2.9a3.3 3.3 0 013.3-3.31h35.42a3.3 3.3 0 013.3 3.3v2.9a3.3 3.3 0 01-3.3 3.31z" fill="#41C3FF"/>
    <path d="M53.67 90.35H41.79a2.09 2.09 0 110-4.18h11.88a2.09 2.09 0 110 4.18z" fill="#DAF3FF"/>
    <path d="M-21.75 49.71v85.3h6.06v-19.62h92.2v19.62h6v-85.3H-21.74zm98.25 58.36h-92.2v-51.4h92.2v51.4z" fill="#A7E3FF"/>
    <path d="M315.31 145.49s-15.23-12.11-14.37-25.15c10.18 0 20.12 9.34 20.12 9.34s-5.28-21.92 4.03-30.77c12.58 6.06 17.24 23.75 17.24 23.75s-4.2-38.18 1.86-47.5c13.5 16.3 19.1 47.5 19.1 47.5v21.9l-47.98.93z" fill="#41C3FF"/>
    <path d="M342.13 143.76s-9.21-7.32-8.7-15.2c6.16 0 12.17 5.64 12.17 5.64s-3.2-13.25 2.44-18.6c11.06 4 13.85 23.56 13.85 23.56l-19.76 4.6z" fill="#A7E3FF"/>
    <path d="M11.81 150.38s33.33-11.55 37.65-39.2c-23.51-1.23-40.64 27.23-40.64 27.23s22.27-29.7 17.55-42.49c-10.27.42-20.13 20.22-20.13 20.22s4.16-27.23-4.28-39.6c-14.13 25.57-8.43 42.07-8.43 42.07v30.53l18.28 1.24z" fill="#41C3FF"/>
  </g>
  <defs>
    <linearGradient id="paint0_linear" x1="124.59" y1="22.01" x2="144.47" y2="24.25" gradientUnits="userSpaceOnUse">
      <stop stop-color="#04AE59"/>
      <stop offset="1" stop-color="#047B35"/>
    </linearGradient>
    <linearGradient id="paint1_linear" x1="135.45" y1="52.08" x2="171.42" y2="56.11" gradientUnits="userSpaceOnUse">
      <stop stop-color="#E90089"/>
      <stop offset="1" stop-color="#C4007C"/>
    </linearGradient>
    <linearGradient id="paint2_linear" x1="154.5" y1="26.73" x2="147.04" y2="55.36" gradientUnits="userSpaceOnUse">
      <stop stop-color="#F4901E"/>
      <stop offset="1" stop-color="#EA5F01"/>
    </linearGradient>
    <linearGradient id="paint3_linear" x1="156.14" y1="31.49" x2="156.78" y2="38.68" gradientUnits="userSpaceOnUse">
      <stop stop-color="#F4901E"/>
      <stop offset="1" stop-color="#EA5F01"/>
    </linearGradient>
    <linearGradient id="paint4_linear" x1="100.18" y1="55.41" x2="144.78" y2="60.42" gradientUnits="userSpaceOnUse">
      <stop stop-color="#F4901E"/>
      <stop offset="1" stop-color="#EA5F01"/>
    </linearGradient>
    <linearGradient id="paint5_linear" x1="120.04" y1="31.58" x2="130.2" y2="62.58" gradientUnits="userSpaceOnUse">
      <stop stop-color="#EA1D25"/>
      <stop offset="1" stop-color="#A80000"/>
    </linearGradient>
    <linearGradient id="paint6_linear" x1="121.89" y1="33.83" x2="109.3" y2="57.88" gradientUnits="userSpaceOnUse">
      <stop stop-color="#EA1D25"/>
      <stop offset="1" stop-color="#A80000"/>
    </linearGradient>
    <linearGradient id="paint7_linear" x1="110.21" y1="56.95" x2="86.28" y2="104.48" gradientUnits="userSpaceOnUse">
      <stop stop-color="#3EBDFF"/>
      <stop offset="1" stop-color="#0B75C4"/>
    </linearGradient>
    <linearGradient id="paint8_linear" x1="157.91" y1="50.68" x2="124.54" y2="116.96" gradientUnits="userSpaceOnUse">
      <stop stop-color="#74D3FF"/>
      <stop offset="1" stop-color="#0EB3FF"/>
    </linearGradient>
    <linearGradient id="paint9_linear" x1="146.91" y1="98.82" x2="145.97" y2="102.59" gradientUnits="userSpaceOnUse">
      <stop offset="0" stop-color="#0095DA"/>
      <stop offset="1" stop-color="#0072A7"/>
    </linearGradient>
    <linearGradient id="paint10_linear" x1="144.78" y1="104.24" x2="141.76" y2="109.72" gradientUnits="userSpaceOnUse">
      <stop stop-color="#EA1D25"/>
      <stop offset="1" stop-color="#A80000"/>
    </linearGradient>
  </defs>
</svg>